<svg xmlns="http://www.w3.org/2000/svg" width="1355" height="503" viewBox="0 0 1355 503" fill="none"><path d="M0.791001 302.924C24.4072 311.986 50.4784 296.148 66.9999 277.014C92.6547 247.315 106.573 207.763 105.159 168.542C104.794 158.371 91.0516 99.5096 74.2159 122.089C65.1121 134.316 79.8556 151.26 92.8241 150.033C100.099 149.338 106.668 145.418 112.388 140.874C144.813 115.08 155.165 70.168 182.714 39.2152C213.728 4.3812 266.896 -8.57425 310.542 7.857C351.308 23.2107 412.58 96.8294 431.435 136.104C450.29 175.378 646.762 96.1213 822.848 357.517C935.418 465.022 1316.22 480.354 1354.13 501.84" stroke="#EBAC91" stroke-miterlimit="10"></path></svg>